<svg xmlns="http://www.w3.org/2000/svg" viewBox="0 0 178.54 38"><defs><style>.cls-1{fill:#fff;}.cls-2{fill:#6296bc;}</style></defs><title>Analyze-Horizontal-ForOnDark</title><g id="Layer_2" data-name="Layer 2"><g id="Layer_1-2" data-name="Layer 1"><path class="cls-1" d="M66,23.7H58.82l-1.2,3H54l6.68-15.4H64.3l6.57,15.4H67.16Zm-1.12-2.79-2.42-6-2.44,6Z"/><path class="cls-1" d="M78.73,11.3l7.48,9.9V11.3h3.3V26.7H86.34l-7.45-9.88V26.7H75.57V11.3Z"/><path class="cls-1" d="M106.14,23.7H99l-1.21,3H94.22l6.69-15.4h3.58l6.58,15.4h-3.72ZM105,20.91l-2.42-6-2.44,6Z"/><path class="cls-1" d="M119.24,11.3V23.66h6.59v3H115.76V11.3Z"/><path class="cls-1" d="M138.4,21.73v5h-3.48V21.81L129.23,11.3h3.49l3.94,6.91,3.85-6.91H144Z"/><path class="cls-1" d="M161,11.3v2.33l-8.6,10.16h8.73l0,2.91H147.71V24.34l8.62-10.13H148V11.3Z"/><path class="cls-1" d="M178.3,11.3v2.89h-8.24v3.34h7.41v2.88h-7.41v3.41h8.48V26.7h-12V11.3Z"/><path class="cls-2" d="M14.55,0A14.54,14.54,0,0,0,0,14.55V38H23.45A14.54,14.54,0,0,0,38,23.45V0Z"/><rect class="cls-1" x="8.14" y="19.03" width="4" height="9"/><rect class="cls-1" x="17" y="13.92" width="4" height="14.12"/><rect class="cls-1" x="25.86" y="9.97" width="4" height="18.07"/></g></g></svg>